<svg width="640" height="360" viewBox="0 0 640 360" fill="none" xmlns="http://www.w3.org/2000/svg">
  <defs>
    <linearGradient id="g2" x1="60" y1="44" x2="578" y2="318" gradientUnits="userSpaceOnUse">
      <stop stop-color="#EFF8FF"/>
      <stop offset="1" stop-color="#F8FCFF"/>
    </linearGradient>
  </defs>
  <rect x="12" y="12" width="616" height="336" rx="26" fill="url(#g2)" stroke="#CFE4F3" stroke-width="2"/>
  <rect x="48" y="64" width="170" height="244" rx="14" fill="#FFFFFF" stroke="#D4E5F2"/>
  <rect x="236" y="64" width="170" height="244" rx="14" fill="#FFFFFF" stroke="#D4E5F2"/>
  <rect x="424" y="64" width="170" height="244" rx="14" fill="#FFFFFF" stroke="#D4E5F2"/>
  <rect x="66" y="90" width="126" height="10" rx="5" fill="#BFD7EA"/>
  <rect x="254" y="90" width="126" height="10" rx="5" fill="#BFD7EA"/>
  <rect x="442" y="90" width="126" height="10" rx="5" fill="#BFD7EA"/>
  <rect x="66" y="118" width="132" height="72" rx="10" fill="#F7FBFF" stroke="#D8E8F4"/>
  <rect x="66" y="200" width="132" height="72" rx="10" fill="#F7FBFF" stroke="#D8E8F4"/>
  <rect x="254" y="118" width="132" height="72" rx="10" fill="#F7FBFF" stroke="#D8E8F4"/>
  <rect x="254" y="200" width="132" height="72" rx="10" fill="#F7FBFF" stroke="#D8E8F4"/>
  <rect x="442" y="118" width="132" height="72" rx="10" fill="#F7FBFF" stroke="#D8E8F4"/>
  <rect x="442" y="200" width="132" height="72" rx="10" fill="#F7FBFF" stroke="#D8E8F4"/>
  <circle cx="184" cy="131" r="10" fill="#2CA56B"/>
  <circle cx="372" cy="131" r="10" fill="#E2A940"/>
  <circle cx="560" cy="131" r="10" fill="#D95757"/>
</svg>
