<svg width="640" height="360" viewBox="0 0 640 360" fill="none" xmlns="http://www.w3.org/2000/svg">
  <defs>
    <linearGradient id="g1" x1="40" y1="40" x2="590" y2="330" gradientUnits="userSpaceOnUse">
      <stop stop-color="#EEF8FF"/>
      <stop offset="1" stop-color="#F8FCFF"/>
    </linearGradient>
  </defs>
  <rect x="12" y="12" width="616" height="336" rx="26" fill="url(#g1)" stroke="#CFE3F2" stroke-width="2"/>
  <rect x="54" y="66" width="242" height="226" rx="16" fill="#FFFFFF" stroke="#D5E7F4"/>
  <circle cx="176" cy="120" r="34" fill="#E4F2FF"/>
  <rect x="96" y="170" width="160" height="10" rx="5" fill="#C5DCEF"/>
  <rect x="96" y="188" width="140" height="10" rx="5" fill="#D8E8F4"/>
  <rect x="96" y="206" width="112" height="10" rx="5" fill="#D8E8F4"/>
  <rect x="334" y="80" width="250" height="62" rx="14" fill="#FFFFFF" stroke="#D5E7F4"/>
  <rect x="334" y="152" width="250" height="62" rx="14" fill="#FFFFFF" stroke="#D5E7F4"/>
  <rect x="334" y="224" width="250" height="62" rx="14" fill="#FFFFFF" stroke="#D5E7F4"/>
  <circle cx="366" cy="111" r="12" fill="#0A79C9"/>
  <circle cx="366" cy="183" r="12" fill="#1E9AA2"/>
  <circle cx="366" cy="255" r="12" fill="#2CA56B"/>
  <rect x="388" y="106" width="154" height="10" rx="5" fill="#C7DDEF"/>
  <rect x="388" y="178" width="134" height="10" rx="5" fill="#C7DDEF"/>
  <rect x="388" y="250" width="144" height="10" rx="5" fill="#C7DDEF"/>
</svg>
