<svg width="640" height="360" viewBox="0 0 640 360" fill="none" xmlns="http://www.w3.org/2000/svg">
  <defs>
    <linearGradient id="g4" x1="44" y1="40" x2="598" y2="326" gradientUnits="userSpaceOnUse">
      <stop stop-color="#EDF7FF"/>
      <stop offset="1" stop-color="#F8FCFF"/>
    </linearGradient>
  </defs>
  <rect x="12" y="12" width="616" height="336" rx="26" fill="url(#g4)" stroke="#CCE2F2" stroke-width="2"/>
  <rect x="40" y="84" width="108" height="206" rx="12" fill="#FFFFFF" stroke="#D3E5F2"/>
  <rect x="160" y="84" width="108" height="206" rx="12" fill="#FFFFFF" stroke="#D3E5F2"/>
  <rect x="280" y="84" width="108" height="206" rx="12" fill="#FFFFFF" stroke="#D3E5F2"/>
  <rect x="400" y="84" width="108" height="206" rx="12" fill="#FFFFFF" stroke="#D3E5F2"/>
  <rect x="520" y="84" width="80" height="206" rx="12" fill="#FFFFFF" stroke="#D3E5F2"/>
  <rect x="52" y="112" width="84" height="56" rx="9" fill="#F7FBFF" stroke="#D8E8F3"/>
  <rect x="172" y="162" width="84" height="56" rx="9" fill="#F7FBFF" stroke="#D8E8F3"/>
  <rect x="292" y="128" width="84" height="56" rx="9" fill="#F7FBFF" stroke="#D8E8F3"/>
  <rect x="412" y="188" width="84" height="56" rx="9" fill="#F7FBFF" stroke="#D8E8F3"/>
  <path d="M140 66H240" stroke="#99C2E0" stroke-width="4" stroke-linecap="round"/>
  <path d="M260 66H360" stroke="#99C2E0" stroke-width="4" stroke-linecap="round"/>
  <path d="M380 66H480" stroke="#99C2E0" stroke-width="4" stroke-linecap="round"/>
  <path d="M500 66H576" stroke="#99C2E0" stroke-width="4" stroke-linecap="round"/>
  <circle cx="136" cy="66" r="7" fill="#0A79C9"/>
  <circle cx="256" cy="66" r="7" fill="#1A90C0"/>
  <circle cx="376" cy="66" r="7" fill="#2CA56B"/>
  <circle cx="496" cy="66" r="7" fill="#D95757"/>
</svg>
